<mxfile host="app.diagrams.net" modified="2022-09-23T16:27:50.293Z" agent="5.0 (Windows NT 10.0; Win64; x64) AppleWebKit/537.36 (KHTML, like Gecko) Chrome/105.0.0.0 Safari/537.36" etag="iH5Q61rM10XQMyOJ_3v9" version="20.3.3" type="github">
  <diagram id="wiXpB0R6hGRi7Ds9r7dI" name="Page-1">
    <mxGraphModel dx="1360" dy="766" grid="1" gridSize="10" guides="1" tooltips="1" connect="1" arrows="1" fold="1" page="1" pageScale="1" pageWidth="850" pageHeight="1100" math="0" shadow="0">
      <root>
        <mxCell id="0" />
        <mxCell id="1" parent="0" />
        <mxCell id="cO-cEEbj9-mgOrdGgHa7-172" value="" style="group" vertex="1" connectable="0" parent="1">
          <mxGeometry x="35" y="50" width="780" height="290" as="geometry" />
        </mxCell>
        <mxCell id="cO-cEEbj9-mgOrdGgHa7-8" value="" style="group" vertex="1" connectable="0" parent="cO-cEEbj9-mgOrdGgHa7-172">
          <mxGeometry y="60" width="150" height="170" as="geometry" />
        </mxCell>
        <mxCell id="cO-cEEbj9-mgOrdGgHa7-5" value="" style="rounded=1;whiteSpace=wrap;html=1;" vertex="1" parent="cO-cEEbj9-mgOrdGgHa7-8">
          <mxGeometry width="150" height="170" as="geometry" />
        </mxCell>
        <mxCell id="cO-cEEbj9-mgOrdGgHa7-2" value="" style="shape=note;whiteSpace=wrap;html=1;backgroundOutline=1;darkOpacity=0.05;" vertex="1" parent="cO-cEEbj9-mgOrdGgHa7-8">
          <mxGeometry x="25" y="25" width="80" height="100" as="geometry" />
        </mxCell>
        <mxCell id="cO-cEEbj9-mgOrdGgHa7-3" value="" style="shape=note;whiteSpace=wrap;html=1;backgroundOutline=1;darkOpacity=0.05;" vertex="1" parent="cO-cEEbj9-mgOrdGgHa7-8">
          <mxGeometry x="35" y="35" width="80" height="100" as="geometry" />
        </mxCell>
        <mxCell id="cO-cEEbj9-mgOrdGgHa7-4" value="images" style="shape=note;whiteSpace=wrap;html=1;backgroundOutline=1;darkOpacity=0.05;" vertex="1" parent="cO-cEEbj9-mgOrdGgHa7-8">
          <mxGeometry x="45" y="45" width="80" height="100" as="geometry" />
        </mxCell>
        <mxCell id="cO-cEEbj9-mgOrdGgHa7-165" value="" style="group" vertex="1" connectable="0" parent="cO-cEEbj9-mgOrdGgHa7-172">
          <mxGeometry x="680" y="160" width="100" height="85" as="geometry" />
        </mxCell>
        <mxCell id="cO-cEEbj9-mgOrdGgHa7-162" value="" style="shape=cylinder3;whiteSpace=wrap;html=1;boundedLbl=1;backgroundOutline=1;size=15;fillColor=#FFFCF2;" vertex="1" parent="cO-cEEbj9-mgOrdGgHa7-165">
          <mxGeometry y="5" width="100" height="80" as="geometry" />
        </mxCell>
        <mxCell id="cO-cEEbj9-mgOrdGgHa7-164" value="" style="shape=cylinder3;whiteSpace=wrap;html=1;boundedLbl=1;backgroundOutline=1;size=15;fillColor=#FFFCF2;" vertex="1" parent="cO-cEEbj9-mgOrdGgHa7-165">
          <mxGeometry width="100" height="55" as="geometry" />
        </mxCell>
        <mxCell id="cO-cEEbj9-mgOrdGgHa7-166" value="Model" style="text;html=1;strokeColor=none;fillColor=none;align=center;verticalAlign=middle;whiteSpace=wrap;rounded=0;" vertex="1" parent="cO-cEEbj9-mgOrdGgHa7-165">
          <mxGeometry x="20" y="55" width="60" height="30" as="geometry" />
        </mxCell>
        <mxCell id="cO-cEEbj9-mgOrdGgHa7-169" value="" style="group" vertex="1" connectable="0" parent="cO-cEEbj9-mgOrdGgHa7-172">
          <mxGeometry x="230" width="370" height="290" as="geometry" />
        </mxCell>
        <mxCell id="cO-cEEbj9-mgOrdGgHa7-167" value="" style="rounded=1;whiteSpace=wrap;html=1;fillColor=#FFFCF2;" vertex="1" parent="cO-cEEbj9-mgOrdGgHa7-169">
          <mxGeometry width="370" height="290" as="geometry" />
        </mxCell>
        <mxCell id="cO-cEEbj9-mgOrdGgHa7-160" value="" style="group" vertex="1" connectable="0" parent="cO-cEEbj9-mgOrdGgHa7-169">
          <mxGeometry x="20" y="30" width="340" height="230" as="geometry" />
        </mxCell>
        <mxCell id="cO-cEEbj9-mgOrdGgHa7-86" value="" style="group" vertex="1" connectable="0" parent="cO-cEEbj9-mgOrdGgHa7-160">
          <mxGeometry x="190" y="100" width="50" height="10" as="geometry" />
        </mxCell>
        <mxCell id="cO-cEEbj9-mgOrdGgHa7-84" value="" style="group" vertex="1" connectable="0" parent="cO-cEEbj9-mgOrdGgHa7-86">
          <mxGeometry width="50" height="10" as="geometry" />
        </mxCell>
        <mxCell id="cO-cEEbj9-mgOrdGgHa7-72" value="" style="ellipse;whiteSpace=wrap;html=1;aspect=fixed;fillColor=#1A1A1A;" vertex="1" parent="cO-cEEbj9-mgOrdGgHa7-84">
          <mxGeometry width="10" height="10" as="geometry" />
        </mxCell>
        <mxCell id="cO-cEEbj9-mgOrdGgHa7-73" value="" style="ellipse;whiteSpace=wrap;html=1;aspect=fixed;fillColor=#1A1A1A;" vertex="1" parent="cO-cEEbj9-mgOrdGgHa7-84">
          <mxGeometry x="20" width="10" height="10" as="geometry" />
        </mxCell>
        <mxCell id="cO-cEEbj9-mgOrdGgHa7-75" value="" style="ellipse;whiteSpace=wrap;html=1;aspect=fixed;fillColor=#1A1A1A;" vertex="1" parent="cO-cEEbj9-mgOrdGgHa7-84">
          <mxGeometry x="40" width="10" height="10" as="geometry" />
        </mxCell>
        <mxCell id="cO-cEEbj9-mgOrdGgHa7-145" value="" style="shape=flexArrow;endArrow=classic;html=1;rounded=0;width=18.285714285714285;endSize=6.6000000000000005;" edge="1" parent="cO-cEEbj9-mgOrdGgHa7-84">
          <mxGeometry width="50" height="50" relative="1" as="geometry">
            <mxPoint x="-10" y="5" as="sourcePoint" />
            <mxPoint x="60" y="5" as="targetPoint" />
          </mxGeometry>
        </mxCell>
        <mxCell id="cO-cEEbj9-mgOrdGgHa7-85" style="edgeStyle=orthogonalEdgeStyle;rounded=0;orthogonalLoop=1;jettySize=auto;html=1;exitX=0;exitY=0;exitDx=0;exitDy=0;" edge="1" parent="cO-cEEbj9-mgOrdGgHa7-86" source="cO-cEEbj9-mgOrdGgHa7-73">
          <mxGeometry relative="1" as="geometry">
            <mxPoint x="21.28571428571422" y="1.7142857142857792" as="targetPoint" />
          </mxGeometry>
        </mxCell>
        <mxCell id="cO-cEEbj9-mgOrdGgHa7-158" value="" style="group" vertex="1" connectable="0" parent="cO-cEEbj9-mgOrdGgHa7-160">
          <mxGeometry x="260" y="20" width="80" height="190" as="geometry" />
        </mxCell>
        <mxCell id="cO-cEEbj9-mgOrdGgHa7-47" value="" style="group" vertex="1" connectable="0" parent="cO-cEEbj9-mgOrdGgHa7-158">
          <mxGeometry x="50" y="20" width="30" height="150" as="geometry" />
        </mxCell>
        <mxCell id="cO-cEEbj9-mgOrdGgHa7-19" value="" style="ellipse;whiteSpace=wrap;html=1;aspect=fixed;" vertex="1" parent="cO-cEEbj9-mgOrdGgHa7-47">
          <mxGeometry y="120" width="30" height="30" as="geometry" />
        </mxCell>
        <mxCell id="cO-cEEbj9-mgOrdGgHa7-29" value="" style="ellipse;whiteSpace=wrap;html=1;aspect=fixed;" vertex="1" parent="cO-cEEbj9-mgOrdGgHa7-47">
          <mxGeometry width="30" height="30" as="geometry" />
        </mxCell>
        <mxCell id="cO-cEEbj9-mgOrdGgHa7-30" value="" style="ellipse;whiteSpace=wrap;html=1;aspect=fixed;" vertex="1" parent="cO-cEEbj9-mgOrdGgHa7-47">
          <mxGeometry y="40" width="30" height="30" as="geometry" />
        </mxCell>
        <mxCell id="cO-cEEbj9-mgOrdGgHa7-65" value="" style="group" vertex="1" connectable="0" parent="cO-cEEbj9-mgOrdGgHa7-47">
          <mxGeometry x="10" y="80" width="10" height="30" as="geometry" />
        </mxCell>
        <mxCell id="cO-cEEbj9-mgOrdGgHa7-66" value="" style="ellipse;whiteSpace=wrap;html=1;aspect=fixed;fillColor=#1A1A1A;" vertex="1" parent="cO-cEEbj9-mgOrdGgHa7-65">
          <mxGeometry width="10" height="10" as="geometry" />
        </mxCell>
        <mxCell id="cO-cEEbj9-mgOrdGgHa7-67" value="" style="ellipse;whiteSpace=wrap;html=1;aspect=fixed;fillColor=#1A1A1A;" vertex="1" parent="cO-cEEbj9-mgOrdGgHa7-65">
          <mxGeometry y="20" width="10" height="10" as="geometry" />
        </mxCell>
        <mxCell id="cO-cEEbj9-mgOrdGgHa7-88" value="" style="group" vertex="1" connectable="0" parent="cO-cEEbj9-mgOrdGgHa7-158">
          <mxGeometry width="30" height="190" as="geometry" />
        </mxCell>
        <mxCell id="cO-cEEbj9-mgOrdGgHa7-89" value="" style="ellipse;whiteSpace=wrap;html=1;aspect=fixed;" vertex="1" parent="cO-cEEbj9-mgOrdGgHa7-88">
          <mxGeometry y="80" width="30" height="30" as="geometry" />
        </mxCell>
        <mxCell id="cO-cEEbj9-mgOrdGgHa7-90" value="" style="ellipse;whiteSpace=wrap;html=1;aspect=fixed;" vertex="1" parent="cO-cEEbj9-mgOrdGgHa7-88">
          <mxGeometry width="30" height="30" as="geometry" />
        </mxCell>
        <mxCell id="cO-cEEbj9-mgOrdGgHa7-91" value="" style="ellipse;whiteSpace=wrap;html=1;aspect=fixed;" vertex="1" parent="cO-cEEbj9-mgOrdGgHa7-88">
          <mxGeometry y="40" width="30" height="30" as="geometry" />
        </mxCell>
        <mxCell id="cO-cEEbj9-mgOrdGgHa7-92" value="" style="ellipse;whiteSpace=wrap;html=1;aspect=fixed;" vertex="1" parent="cO-cEEbj9-mgOrdGgHa7-88">
          <mxGeometry y="160" width="30" height="30" as="geometry" />
        </mxCell>
        <mxCell id="cO-cEEbj9-mgOrdGgHa7-93" value="" style="group" vertex="1" connectable="0" parent="cO-cEEbj9-mgOrdGgHa7-88">
          <mxGeometry x="10" y="120" width="10" height="30" as="geometry" />
        </mxCell>
        <mxCell id="cO-cEEbj9-mgOrdGgHa7-94" value="" style="ellipse;whiteSpace=wrap;html=1;aspect=fixed;fillColor=#1A1A1A;" vertex="1" parent="cO-cEEbj9-mgOrdGgHa7-93">
          <mxGeometry width="10" height="10" as="geometry" />
        </mxCell>
        <mxCell id="cO-cEEbj9-mgOrdGgHa7-95" value="" style="ellipse;whiteSpace=wrap;html=1;aspect=fixed;fillColor=#1A1A1A;" vertex="1" parent="cO-cEEbj9-mgOrdGgHa7-93">
          <mxGeometry y="20" width="10" height="10" as="geometry" />
        </mxCell>
        <mxCell id="cO-cEEbj9-mgOrdGgHa7-146" value="" style="endArrow=none;html=1;rounded=0;exitX=1;exitY=0.5;exitDx=0;exitDy=0;entryX=0;entryY=0.5;entryDx=0;entryDy=0;" edge="1" parent="cO-cEEbj9-mgOrdGgHa7-158" source="cO-cEEbj9-mgOrdGgHa7-90" target="cO-cEEbj9-mgOrdGgHa7-29">
          <mxGeometry width="50" height="50" relative="1" as="geometry">
            <mxPoint x="-180" y="60" as="sourcePoint" />
            <mxPoint x="-130" y="10" as="targetPoint" />
          </mxGeometry>
        </mxCell>
        <mxCell id="cO-cEEbj9-mgOrdGgHa7-147" value="" style="endArrow=none;html=1;rounded=0;exitX=1;exitY=0.5;exitDx=0;exitDy=0;entryX=0;entryY=0.5;entryDx=0;entryDy=0;" edge="1" parent="cO-cEEbj9-mgOrdGgHa7-158" source="cO-cEEbj9-mgOrdGgHa7-91" target="cO-cEEbj9-mgOrdGgHa7-29">
          <mxGeometry width="50" height="50" relative="1" as="geometry">
            <mxPoint x="39.999999999994316" y="25" as="sourcePoint" />
            <mxPoint x="60.000000000005684" y="45" as="targetPoint" />
          </mxGeometry>
        </mxCell>
        <mxCell id="cO-cEEbj9-mgOrdGgHa7-148" value="" style="endArrow=none;html=1;rounded=0;exitX=1;exitY=0.5;exitDx=0;exitDy=0;entryX=0;entryY=0.5;entryDx=0;entryDy=0;" edge="1" parent="cO-cEEbj9-mgOrdGgHa7-158" source="cO-cEEbj9-mgOrdGgHa7-89" target="cO-cEEbj9-mgOrdGgHa7-29">
          <mxGeometry width="50" height="50" relative="1" as="geometry">
            <mxPoint x="39.999999999994316" y="65" as="sourcePoint" />
            <mxPoint x="60.000000000005684" y="45" as="targetPoint" />
          </mxGeometry>
        </mxCell>
        <mxCell id="cO-cEEbj9-mgOrdGgHa7-149" value="" style="endArrow=none;html=1;rounded=0;exitX=1;exitY=0.5;exitDx=0;exitDy=0;entryX=0;entryY=0.5;entryDx=0;entryDy=0;" edge="1" parent="cO-cEEbj9-mgOrdGgHa7-158" source="cO-cEEbj9-mgOrdGgHa7-92" target="cO-cEEbj9-mgOrdGgHa7-29">
          <mxGeometry width="50" height="50" relative="1" as="geometry">
            <mxPoint x="39.999999999994316" y="105" as="sourcePoint" />
            <mxPoint x="60.000000000005684" y="45" as="targetPoint" />
          </mxGeometry>
        </mxCell>
        <mxCell id="cO-cEEbj9-mgOrdGgHa7-150" value="" style="endArrow=none;html=1;rounded=0;exitX=0;exitY=0.5;exitDx=0;exitDy=0;entryX=1;entryY=0.5;entryDx=0;entryDy=0;" edge="1" parent="cO-cEEbj9-mgOrdGgHa7-158" source="cO-cEEbj9-mgOrdGgHa7-19" target="cO-cEEbj9-mgOrdGgHa7-90">
          <mxGeometry width="50" height="50" relative="1" as="geometry">
            <mxPoint x="39.999999999994316" y="185" as="sourcePoint" />
            <mxPoint x="60.000000000005684" y="45" as="targetPoint" />
          </mxGeometry>
        </mxCell>
        <mxCell id="cO-cEEbj9-mgOrdGgHa7-151" value="" style="endArrow=none;html=1;rounded=0;exitX=0;exitY=0.5;exitDx=0;exitDy=0;entryX=1;entryY=0.5;entryDx=0;entryDy=0;" edge="1" parent="cO-cEEbj9-mgOrdGgHa7-158" source="cO-cEEbj9-mgOrdGgHa7-19" target="cO-cEEbj9-mgOrdGgHa7-91">
          <mxGeometry width="50" height="50" relative="1" as="geometry">
            <mxPoint x="60.000000000005684" y="165" as="sourcePoint" />
            <mxPoint x="39.999999999994316" y="25" as="targetPoint" />
          </mxGeometry>
        </mxCell>
        <mxCell id="cO-cEEbj9-mgOrdGgHa7-152" value="" style="endArrow=none;html=1;rounded=0;exitX=0;exitY=0.5;exitDx=0;exitDy=0;entryX=1;entryY=0.5;entryDx=0;entryDy=0;" edge="1" parent="cO-cEEbj9-mgOrdGgHa7-158" source="cO-cEEbj9-mgOrdGgHa7-19" target="cO-cEEbj9-mgOrdGgHa7-89">
          <mxGeometry width="50" height="50" relative="1" as="geometry">
            <mxPoint x="60.000000000005684" y="165" as="sourcePoint" />
            <mxPoint x="39.999999999994316" y="65" as="targetPoint" />
          </mxGeometry>
        </mxCell>
        <mxCell id="cO-cEEbj9-mgOrdGgHa7-153" value="" style="endArrow=none;html=1;rounded=0;exitX=0;exitY=0.5;exitDx=0;exitDy=0;entryX=1;entryY=0.5;entryDx=0;entryDy=0;" edge="1" parent="cO-cEEbj9-mgOrdGgHa7-158" source="cO-cEEbj9-mgOrdGgHa7-19" target="cO-cEEbj9-mgOrdGgHa7-92">
          <mxGeometry width="50" height="50" relative="1" as="geometry">
            <mxPoint x="60.000000000005684" y="165" as="sourcePoint" />
            <mxPoint x="39.999999999994316" y="105" as="targetPoint" />
          </mxGeometry>
        </mxCell>
        <mxCell id="cO-cEEbj9-mgOrdGgHa7-154" value="" style="endArrow=none;html=1;rounded=0;exitX=0;exitY=0.5;exitDx=0;exitDy=0;entryX=1;entryY=0.5;entryDx=0;entryDy=0;" edge="1" parent="cO-cEEbj9-mgOrdGgHa7-158" source="cO-cEEbj9-mgOrdGgHa7-30" target="cO-cEEbj9-mgOrdGgHa7-89">
          <mxGeometry width="50" height="50" relative="1" as="geometry">
            <mxPoint x="60.000000000005684" y="165" as="sourcePoint" />
            <mxPoint x="39.999999999994316" y="185" as="targetPoint" />
          </mxGeometry>
        </mxCell>
        <mxCell id="cO-cEEbj9-mgOrdGgHa7-155" value="" style="endArrow=none;html=1;rounded=0;exitX=0;exitY=0.5;exitDx=0;exitDy=0;entryX=1;entryY=0.5;entryDx=0;entryDy=0;" edge="1" parent="cO-cEEbj9-mgOrdGgHa7-158" source="cO-cEEbj9-mgOrdGgHa7-30" target="cO-cEEbj9-mgOrdGgHa7-92">
          <mxGeometry width="50" height="50" relative="1" as="geometry">
            <mxPoint x="60.000000000005684" y="85" as="sourcePoint" />
            <mxPoint x="39.999999999994316" y="105" as="targetPoint" />
          </mxGeometry>
        </mxCell>
        <mxCell id="cO-cEEbj9-mgOrdGgHa7-156" value="" style="endArrow=none;html=1;rounded=0;exitX=0;exitY=0.5;exitDx=0;exitDy=0;entryX=1;entryY=0.5;entryDx=0;entryDy=0;" edge="1" parent="cO-cEEbj9-mgOrdGgHa7-158" source="cO-cEEbj9-mgOrdGgHa7-30" target="cO-cEEbj9-mgOrdGgHa7-91">
          <mxGeometry width="50" height="50" relative="1" as="geometry">
            <mxPoint x="60.000000000005684" y="85" as="sourcePoint" />
            <mxPoint x="39.999999999994316" y="185" as="targetPoint" />
          </mxGeometry>
        </mxCell>
        <mxCell id="cO-cEEbj9-mgOrdGgHa7-157" value="" style="endArrow=none;html=1;rounded=0;exitX=0;exitY=0.5;exitDx=0;exitDy=0;entryX=1;entryY=0.5;entryDx=0;entryDy=0;" edge="1" parent="cO-cEEbj9-mgOrdGgHa7-158" source="cO-cEEbj9-mgOrdGgHa7-30" target="cO-cEEbj9-mgOrdGgHa7-90">
          <mxGeometry width="50" height="50" relative="1" as="geometry">
            <mxPoint x="60.000000000005684" y="85" as="sourcePoint" />
            <mxPoint x="39.999999999994316" y="65" as="targetPoint" />
          </mxGeometry>
        </mxCell>
        <mxCell id="cO-cEEbj9-mgOrdGgHa7-159" value="" style="group" vertex="1" connectable="0" parent="cO-cEEbj9-mgOrdGgHa7-160">
          <mxGeometry width="170" height="230" as="geometry" />
        </mxCell>
        <mxCell id="cO-cEEbj9-mgOrdGgHa7-68" value="" style="group" vertex="1" connectable="0" parent="cO-cEEbj9-mgOrdGgHa7-159">
          <mxGeometry width="30" height="230" as="geometry" />
        </mxCell>
        <mxCell id="cO-cEEbj9-mgOrdGgHa7-14" value="" style="ellipse;whiteSpace=wrap;html=1;aspect=fixed;" vertex="1" parent="cO-cEEbj9-mgOrdGgHa7-68">
          <mxGeometry y="80" width="30" height="30" as="geometry" />
        </mxCell>
        <mxCell id="cO-cEEbj9-mgOrdGgHa7-20" value="" style="ellipse;whiteSpace=wrap;html=1;aspect=fixed;" vertex="1" parent="cO-cEEbj9-mgOrdGgHa7-68">
          <mxGeometry y="120" width="30" height="30" as="geometry" />
        </mxCell>
        <mxCell id="cO-cEEbj9-mgOrdGgHa7-21" value="" style="ellipse;whiteSpace=wrap;html=1;aspect=fixed;" vertex="1" parent="cO-cEEbj9-mgOrdGgHa7-68">
          <mxGeometry y="40" width="30" height="30" as="geometry" />
        </mxCell>
        <mxCell id="cO-cEEbj9-mgOrdGgHa7-27" value="" style="ellipse;whiteSpace=wrap;html=1;aspect=fixed;" vertex="1" parent="cO-cEEbj9-mgOrdGgHa7-68">
          <mxGeometry width="30" height="30" as="geometry" />
        </mxCell>
        <mxCell id="cO-cEEbj9-mgOrdGgHa7-28" value="" style="ellipse;whiteSpace=wrap;html=1;aspect=fixed;" vertex="1" parent="cO-cEEbj9-mgOrdGgHa7-68">
          <mxGeometry y="200" width="30" height="30" as="geometry" />
        </mxCell>
        <mxCell id="cO-cEEbj9-mgOrdGgHa7-61" value="" style="group" vertex="1" connectable="0" parent="cO-cEEbj9-mgOrdGgHa7-68">
          <mxGeometry x="10" y="160" width="10" height="30" as="geometry" />
        </mxCell>
        <mxCell id="cO-cEEbj9-mgOrdGgHa7-48" value="" style="ellipse;whiteSpace=wrap;html=1;aspect=fixed;fillColor=#1A1A1A;" vertex="1" parent="cO-cEEbj9-mgOrdGgHa7-61">
          <mxGeometry width="10" height="10" as="geometry" />
        </mxCell>
        <mxCell id="cO-cEEbj9-mgOrdGgHa7-49" value="" style="ellipse;whiteSpace=wrap;html=1;aspect=fixed;fillColor=#1A1A1A;" vertex="1" parent="cO-cEEbj9-mgOrdGgHa7-61">
          <mxGeometry y="20" width="10" height="10" as="geometry" />
        </mxCell>
        <mxCell id="cO-cEEbj9-mgOrdGgHa7-69" value="" style="group" vertex="1" connectable="0" parent="cO-cEEbj9-mgOrdGgHa7-159">
          <mxGeometry x="65" y="20" width="30" height="190" as="geometry" />
        </mxCell>
        <mxCell id="cO-cEEbj9-mgOrdGgHa7-15" value="" style="ellipse;whiteSpace=wrap;html=1;aspect=fixed;" vertex="1" parent="cO-cEEbj9-mgOrdGgHa7-69">
          <mxGeometry y="80" width="30" height="30" as="geometry" />
        </mxCell>
        <mxCell id="cO-cEEbj9-mgOrdGgHa7-16" value="" style="ellipse;whiteSpace=wrap;html=1;aspect=fixed;" vertex="1" parent="cO-cEEbj9-mgOrdGgHa7-69">
          <mxGeometry width="30" height="30" as="geometry" />
        </mxCell>
        <mxCell id="cO-cEEbj9-mgOrdGgHa7-18" value="" style="ellipse;whiteSpace=wrap;html=1;aspect=fixed;" vertex="1" parent="cO-cEEbj9-mgOrdGgHa7-69">
          <mxGeometry y="40" width="30" height="30" as="geometry" />
        </mxCell>
        <mxCell id="cO-cEEbj9-mgOrdGgHa7-26" value="" style="ellipse;whiteSpace=wrap;html=1;aspect=fixed;" vertex="1" parent="cO-cEEbj9-mgOrdGgHa7-69">
          <mxGeometry y="160" width="30" height="30" as="geometry" />
        </mxCell>
        <mxCell id="cO-cEEbj9-mgOrdGgHa7-62" value="" style="group" vertex="1" connectable="0" parent="cO-cEEbj9-mgOrdGgHa7-69">
          <mxGeometry x="10" y="120" width="10" height="30" as="geometry" />
        </mxCell>
        <mxCell id="cO-cEEbj9-mgOrdGgHa7-63" value="" style="ellipse;whiteSpace=wrap;html=1;aspect=fixed;fillColor=#1A1A1A;" vertex="1" parent="cO-cEEbj9-mgOrdGgHa7-62">
          <mxGeometry width="10" height="10" as="geometry" />
        </mxCell>
        <mxCell id="cO-cEEbj9-mgOrdGgHa7-64" value="" style="ellipse;whiteSpace=wrap;html=1;aspect=fixed;fillColor=#1A1A1A;" vertex="1" parent="cO-cEEbj9-mgOrdGgHa7-62">
          <mxGeometry y="20" width="10" height="10" as="geometry" />
        </mxCell>
        <mxCell id="cO-cEEbj9-mgOrdGgHa7-76" value="" style="group" vertex="1" connectable="0" parent="cO-cEEbj9-mgOrdGgHa7-159">
          <mxGeometry x="140" y="20" width="30" height="190" as="geometry" />
        </mxCell>
        <mxCell id="cO-cEEbj9-mgOrdGgHa7-77" value="" style="ellipse;whiteSpace=wrap;html=1;aspect=fixed;" vertex="1" parent="cO-cEEbj9-mgOrdGgHa7-76">
          <mxGeometry y="80" width="30" height="30" as="geometry" />
        </mxCell>
        <mxCell id="cO-cEEbj9-mgOrdGgHa7-78" value="" style="ellipse;whiteSpace=wrap;html=1;aspect=fixed;" vertex="1" parent="cO-cEEbj9-mgOrdGgHa7-76">
          <mxGeometry width="30" height="30" as="geometry" />
        </mxCell>
        <mxCell id="cO-cEEbj9-mgOrdGgHa7-79" value="" style="ellipse;whiteSpace=wrap;html=1;aspect=fixed;" vertex="1" parent="cO-cEEbj9-mgOrdGgHa7-76">
          <mxGeometry y="40" width="30" height="30" as="geometry" />
        </mxCell>
        <mxCell id="cO-cEEbj9-mgOrdGgHa7-80" value="" style="ellipse;whiteSpace=wrap;html=1;aspect=fixed;" vertex="1" parent="cO-cEEbj9-mgOrdGgHa7-76">
          <mxGeometry y="160" width="30" height="30" as="geometry" />
        </mxCell>
        <mxCell id="cO-cEEbj9-mgOrdGgHa7-81" value="" style="group" vertex="1" connectable="0" parent="cO-cEEbj9-mgOrdGgHa7-76">
          <mxGeometry x="10" y="120" width="10" height="30" as="geometry" />
        </mxCell>
        <mxCell id="cO-cEEbj9-mgOrdGgHa7-82" value="" style="ellipse;whiteSpace=wrap;html=1;aspect=fixed;fillColor=#1A1A1A;" vertex="1" parent="cO-cEEbj9-mgOrdGgHa7-81">
          <mxGeometry width="10" height="10" as="geometry" />
        </mxCell>
        <mxCell id="cO-cEEbj9-mgOrdGgHa7-83" value="" style="ellipse;whiteSpace=wrap;html=1;aspect=fixed;fillColor=#1A1A1A;" vertex="1" parent="cO-cEEbj9-mgOrdGgHa7-81">
          <mxGeometry y="20" width="10" height="10" as="geometry" />
        </mxCell>
        <mxCell id="cO-cEEbj9-mgOrdGgHa7-109" value="" style="endArrow=none;html=1;rounded=0;exitX=1;exitY=0.5;exitDx=0;exitDy=0;entryX=0;entryY=0.5;entryDx=0;entryDy=0;" edge="1" parent="cO-cEEbj9-mgOrdGgHa7-159" source="cO-cEEbj9-mgOrdGgHa7-27" target="cO-cEEbj9-mgOrdGgHa7-16">
          <mxGeometry width="50" height="50" relative="1" as="geometry">
            <mxPoint x="80" y="80" as="sourcePoint" />
            <mxPoint x="130" y="30" as="targetPoint" />
          </mxGeometry>
        </mxCell>
        <mxCell id="cO-cEEbj9-mgOrdGgHa7-110" value="" style="endArrow=none;html=1;rounded=0;exitX=1;exitY=0.5;exitDx=0;exitDy=0;entryX=0;entryY=0.5;entryDx=0;entryDy=0;" edge="1" parent="cO-cEEbj9-mgOrdGgHa7-159" source="cO-cEEbj9-mgOrdGgHa7-27" target="cO-cEEbj9-mgOrdGgHa7-18">
          <mxGeometry width="50" height="50" relative="1" as="geometry">
            <mxPoint x="40" y="25" as="sourcePoint" />
            <mxPoint x="75" y="45" as="targetPoint" />
          </mxGeometry>
        </mxCell>
        <mxCell id="cO-cEEbj9-mgOrdGgHa7-111" value="" style="endArrow=none;html=1;rounded=0;exitX=1;exitY=0.5;exitDx=0;exitDy=0;entryX=0;entryY=0.5;entryDx=0;entryDy=0;" edge="1" parent="cO-cEEbj9-mgOrdGgHa7-159" source="cO-cEEbj9-mgOrdGgHa7-27" target="cO-cEEbj9-mgOrdGgHa7-15">
          <mxGeometry width="50" height="50" relative="1" as="geometry">
            <mxPoint x="40" y="25" as="sourcePoint" />
            <mxPoint x="75" y="85" as="targetPoint" />
          </mxGeometry>
        </mxCell>
        <mxCell id="cO-cEEbj9-mgOrdGgHa7-112" value="" style="endArrow=none;html=1;rounded=0;exitX=1.043;exitY=0.686;exitDx=0;exitDy=0;entryX=0;entryY=0.5;entryDx=0;entryDy=0;exitPerimeter=0;" edge="1" parent="cO-cEEbj9-mgOrdGgHa7-159" source="cO-cEEbj9-mgOrdGgHa7-27" target="cO-cEEbj9-mgOrdGgHa7-26">
          <mxGeometry width="50" height="50" relative="1" as="geometry">
            <mxPoint x="40" y="25" as="sourcePoint" />
            <mxPoint x="75" y="125" as="targetPoint" />
          </mxGeometry>
        </mxCell>
        <mxCell id="cO-cEEbj9-mgOrdGgHa7-113" value="" style="endArrow=none;html=1;rounded=0;exitX=1;exitY=0.5;exitDx=0;exitDy=0;entryX=0;entryY=0.5;entryDx=0;entryDy=0;" edge="1" parent="cO-cEEbj9-mgOrdGgHa7-159" source="cO-cEEbj9-mgOrdGgHa7-21" target="cO-cEEbj9-mgOrdGgHa7-26">
          <mxGeometry width="50" height="50" relative="1" as="geometry">
            <mxPoint x="41.289999999999964" y="30.579999999999927" as="sourcePoint" />
            <mxPoint x="75" y="205" as="targetPoint" />
          </mxGeometry>
        </mxCell>
        <mxCell id="cO-cEEbj9-mgOrdGgHa7-114" value="" style="endArrow=none;html=1;rounded=0;entryX=0;entryY=0.5;entryDx=0;entryDy=0;exitX=1;exitY=0.5;exitDx=0;exitDy=0;" edge="1" parent="cO-cEEbj9-mgOrdGgHa7-159" source="cO-cEEbj9-mgOrdGgHa7-21" target="cO-cEEbj9-mgOrdGgHa7-15">
          <mxGeometry width="50" height="50" relative="1" as="geometry">
            <mxPoint x="30" y="60" as="sourcePoint" />
            <mxPoint x="75" y="205" as="targetPoint" />
          </mxGeometry>
        </mxCell>
        <mxCell id="cO-cEEbj9-mgOrdGgHa7-115" value="" style="endArrow=none;html=1;rounded=0;entryX=0;entryY=0.5;entryDx=0;entryDy=0;exitX=1;exitY=0.5;exitDx=0;exitDy=0;" edge="1" parent="cO-cEEbj9-mgOrdGgHa7-159" source="cO-cEEbj9-mgOrdGgHa7-21" target="cO-cEEbj9-mgOrdGgHa7-16">
          <mxGeometry width="50" height="50" relative="1" as="geometry">
            <mxPoint x="40" y="70" as="sourcePoint" />
            <mxPoint x="75" y="125" as="targetPoint" />
          </mxGeometry>
        </mxCell>
        <mxCell id="cO-cEEbj9-mgOrdGgHa7-116" value="" style="endArrow=none;html=1;rounded=0;entryX=0;entryY=0.5;entryDx=0;entryDy=0;exitX=1;exitY=0.5;exitDx=0;exitDy=0;" edge="1" parent="cO-cEEbj9-mgOrdGgHa7-159" source="cO-cEEbj9-mgOrdGgHa7-21" target="cO-cEEbj9-mgOrdGgHa7-18">
          <mxGeometry width="50" height="50" relative="1" as="geometry">
            <mxPoint x="40" y="65" as="sourcePoint" />
            <mxPoint x="75" y="45" as="targetPoint" />
          </mxGeometry>
        </mxCell>
        <mxCell id="cO-cEEbj9-mgOrdGgHa7-117" value="" style="endArrow=none;html=1;rounded=0;entryX=0;entryY=0.5;entryDx=0;entryDy=0;exitX=1;exitY=0.5;exitDx=0;exitDy=0;" edge="1" parent="cO-cEEbj9-mgOrdGgHa7-159" source="cO-cEEbj9-mgOrdGgHa7-14" target="cO-cEEbj9-mgOrdGgHa7-18">
          <mxGeometry width="50" height="50" relative="1" as="geometry">
            <mxPoint x="40" y="65" as="sourcePoint" />
            <mxPoint x="75" y="85" as="targetPoint" />
          </mxGeometry>
        </mxCell>
        <mxCell id="cO-cEEbj9-mgOrdGgHa7-118" value="" style="endArrow=none;html=1;rounded=0;entryX=0;entryY=0.5;entryDx=0;entryDy=0;exitX=1;exitY=0.5;exitDx=0;exitDy=0;" edge="1" parent="cO-cEEbj9-mgOrdGgHa7-159" source="cO-cEEbj9-mgOrdGgHa7-14" target="cO-cEEbj9-mgOrdGgHa7-16">
          <mxGeometry width="50" height="50" relative="1" as="geometry">
            <mxPoint x="40" y="105" as="sourcePoint" />
            <mxPoint x="75" y="85" as="targetPoint" />
          </mxGeometry>
        </mxCell>
        <mxCell id="cO-cEEbj9-mgOrdGgHa7-119" value="" style="endArrow=none;html=1;rounded=0;entryX=0;entryY=0.5;entryDx=0;entryDy=0;exitX=1;exitY=0.5;exitDx=0;exitDy=0;" edge="1" parent="cO-cEEbj9-mgOrdGgHa7-159" source="cO-cEEbj9-mgOrdGgHa7-14" target="cO-cEEbj9-mgOrdGgHa7-15">
          <mxGeometry width="50" height="50" relative="1" as="geometry">
            <mxPoint x="40" y="105" as="sourcePoint" />
            <mxPoint x="75" y="45" as="targetPoint" />
          </mxGeometry>
        </mxCell>
        <mxCell id="cO-cEEbj9-mgOrdGgHa7-120" value="" style="endArrow=none;html=1;rounded=0;entryX=0;entryY=0.5;entryDx=0;entryDy=0;exitX=1;exitY=0.5;exitDx=0;exitDy=0;" edge="1" parent="cO-cEEbj9-mgOrdGgHa7-159" source="cO-cEEbj9-mgOrdGgHa7-14" target="cO-cEEbj9-mgOrdGgHa7-26">
          <mxGeometry width="50" height="50" relative="1" as="geometry">
            <mxPoint x="40" y="105" as="sourcePoint" />
            <mxPoint x="75" y="125" as="targetPoint" />
          </mxGeometry>
        </mxCell>
        <mxCell id="cO-cEEbj9-mgOrdGgHa7-121" value="" style="endArrow=none;html=1;rounded=0;entryX=0;entryY=0.5;entryDx=0;entryDy=0;exitX=1;exitY=0.5;exitDx=0;exitDy=0;" edge="1" parent="cO-cEEbj9-mgOrdGgHa7-159" source="cO-cEEbj9-mgOrdGgHa7-20" target="cO-cEEbj9-mgOrdGgHa7-26">
          <mxGeometry width="50" height="50" relative="1" as="geometry">
            <mxPoint x="40" y="105" as="sourcePoint" />
            <mxPoint x="75" y="205" as="targetPoint" />
          </mxGeometry>
        </mxCell>
        <mxCell id="cO-cEEbj9-mgOrdGgHa7-122" value="" style="endArrow=none;html=1;rounded=0;entryX=0;entryY=0.5;entryDx=0;entryDy=0;exitX=1;exitY=0.5;exitDx=0;exitDy=0;" edge="1" parent="cO-cEEbj9-mgOrdGgHa7-159" source="cO-cEEbj9-mgOrdGgHa7-20" target="cO-cEEbj9-mgOrdGgHa7-15">
          <mxGeometry width="50" height="50" relative="1" as="geometry">
            <mxPoint x="40" y="145" as="sourcePoint" />
            <mxPoint x="75" y="205" as="targetPoint" />
          </mxGeometry>
        </mxCell>
        <mxCell id="cO-cEEbj9-mgOrdGgHa7-123" value="" style="endArrow=none;html=1;rounded=0;entryX=0;entryY=0.5;entryDx=0;entryDy=0;exitX=1;exitY=0.5;exitDx=0;exitDy=0;" edge="1" parent="cO-cEEbj9-mgOrdGgHa7-159" source="cO-cEEbj9-mgOrdGgHa7-20" target="cO-cEEbj9-mgOrdGgHa7-18">
          <mxGeometry width="50" height="50" relative="1" as="geometry">
            <mxPoint x="40" y="145" as="sourcePoint" />
            <mxPoint x="75" y="125" as="targetPoint" />
          </mxGeometry>
        </mxCell>
        <mxCell id="cO-cEEbj9-mgOrdGgHa7-124" value="" style="endArrow=none;html=1;rounded=0;entryX=0;entryY=0.5;entryDx=0;entryDy=0;exitX=1;exitY=0.5;exitDx=0;exitDy=0;" edge="1" parent="cO-cEEbj9-mgOrdGgHa7-159" source="cO-cEEbj9-mgOrdGgHa7-20" target="cO-cEEbj9-mgOrdGgHa7-16">
          <mxGeometry width="50" height="50" relative="1" as="geometry">
            <mxPoint x="40" y="145" as="sourcePoint" />
            <mxPoint x="75" y="85" as="targetPoint" />
          </mxGeometry>
        </mxCell>
        <mxCell id="cO-cEEbj9-mgOrdGgHa7-125" value="" style="endArrow=none;html=1;rounded=0;entryX=0;entryY=0.5;entryDx=0;entryDy=0;exitX=1;exitY=0.5;exitDx=0;exitDy=0;" edge="1" parent="cO-cEEbj9-mgOrdGgHa7-159" source="cO-cEEbj9-mgOrdGgHa7-28" target="cO-cEEbj9-mgOrdGgHa7-26">
          <mxGeometry width="50" height="50" relative="1" as="geometry">
            <mxPoint x="40" y="145" as="sourcePoint" />
            <mxPoint x="75" y="45" as="targetPoint" />
          </mxGeometry>
        </mxCell>
        <mxCell id="cO-cEEbj9-mgOrdGgHa7-126" value="" style="endArrow=none;html=1;rounded=0;entryX=0;entryY=0.5;entryDx=0;entryDy=0;exitX=1;exitY=0.5;exitDx=0;exitDy=0;" edge="1" parent="cO-cEEbj9-mgOrdGgHa7-159" source="cO-cEEbj9-mgOrdGgHa7-28" target="cO-cEEbj9-mgOrdGgHa7-15">
          <mxGeometry width="50" height="50" relative="1" as="geometry">
            <mxPoint x="40" y="225" as="sourcePoint" />
            <mxPoint x="75" y="205" as="targetPoint" />
          </mxGeometry>
        </mxCell>
        <mxCell id="cO-cEEbj9-mgOrdGgHa7-127" value="" style="endArrow=none;html=1;rounded=0;entryX=0;entryY=0.5;entryDx=0;entryDy=0;exitX=1;exitY=0.5;exitDx=0;exitDy=0;" edge="1" parent="cO-cEEbj9-mgOrdGgHa7-159" source="cO-cEEbj9-mgOrdGgHa7-28" target="cO-cEEbj9-mgOrdGgHa7-18">
          <mxGeometry width="50" height="50" relative="1" as="geometry">
            <mxPoint x="40" y="225" as="sourcePoint" />
            <mxPoint x="75" y="125" as="targetPoint" />
          </mxGeometry>
        </mxCell>
        <mxCell id="cO-cEEbj9-mgOrdGgHa7-128" value="" style="endArrow=none;html=1;rounded=0;entryX=0;entryY=0.5;entryDx=0;entryDy=0;exitX=1;exitY=0.5;exitDx=0;exitDy=0;" edge="1" parent="cO-cEEbj9-mgOrdGgHa7-159" source="cO-cEEbj9-mgOrdGgHa7-28" target="cO-cEEbj9-mgOrdGgHa7-16">
          <mxGeometry width="50" height="50" relative="1" as="geometry">
            <mxPoint x="40" y="225" as="sourcePoint" />
            <mxPoint x="75" y="85" as="targetPoint" />
          </mxGeometry>
        </mxCell>
        <mxCell id="cO-cEEbj9-mgOrdGgHa7-129" value="" style="endArrow=none;html=1;rounded=0;entryX=0;entryY=0.5;entryDx=0;entryDy=0;exitX=1;exitY=0.5;exitDx=0;exitDy=0;" edge="1" parent="cO-cEEbj9-mgOrdGgHa7-159" source="cO-cEEbj9-mgOrdGgHa7-26" target="cO-cEEbj9-mgOrdGgHa7-80">
          <mxGeometry width="50" height="50" relative="1" as="geometry">
            <mxPoint x="50" y="235" as="sourcePoint" />
            <mxPoint x="85" y="95" as="targetPoint" />
          </mxGeometry>
        </mxCell>
        <mxCell id="cO-cEEbj9-mgOrdGgHa7-130" value="" style="endArrow=none;html=1;rounded=0;entryX=0;entryY=0.5;entryDx=0;entryDy=0;exitX=1;exitY=0.5;exitDx=0;exitDy=0;" edge="1" parent="cO-cEEbj9-mgOrdGgHa7-159" source="cO-cEEbj9-mgOrdGgHa7-26" target="cO-cEEbj9-mgOrdGgHa7-77">
          <mxGeometry width="50" height="50" relative="1" as="geometry">
            <mxPoint x="105" y="205" as="sourcePoint" />
            <mxPoint x="150.00000000000568" y="205" as="targetPoint" />
          </mxGeometry>
        </mxCell>
        <mxCell id="cO-cEEbj9-mgOrdGgHa7-131" value="" style="endArrow=none;html=1;rounded=0;entryX=0;entryY=0.5;entryDx=0;entryDy=0;exitX=1;exitY=0.5;exitDx=0;exitDy=0;" edge="1" parent="cO-cEEbj9-mgOrdGgHa7-159" source="cO-cEEbj9-mgOrdGgHa7-26" target="cO-cEEbj9-mgOrdGgHa7-79">
          <mxGeometry width="50" height="50" relative="1" as="geometry">
            <mxPoint x="105" y="205" as="sourcePoint" />
            <mxPoint x="150.00000000000568" y="125" as="targetPoint" />
          </mxGeometry>
        </mxCell>
        <mxCell id="cO-cEEbj9-mgOrdGgHa7-132" value="" style="endArrow=none;html=1;rounded=0;entryX=0;entryY=0.5;entryDx=0;entryDy=0;exitX=1;exitY=0.5;exitDx=0;exitDy=0;" edge="1" parent="cO-cEEbj9-mgOrdGgHa7-159" source="cO-cEEbj9-mgOrdGgHa7-15" target="cO-cEEbj9-mgOrdGgHa7-78">
          <mxGeometry width="50" height="50" relative="1" as="geometry">
            <mxPoint x="105" y="205" as="sourcePoint" />
            <mxPoint x="150.00000000000568" y="85" as="targetPoint" />
          </mxGeometry>
        </mxCell>
        <mxCell id="cO-cEEbj9-mgOrdGgHa7-133" value="" style="endArrow=none;html=1;rounded=0;entryX=0;entryY=0.5;entryDx=0;entryDy=0;exitX=1;exitY=0.5;exitDx=0;exitDy=0;" edge="1" parent="cO-cEEbj9-mgOrdGgHa7-159" source="cO-cEEbj9-mgOrdGgHa7-18" target="cO-cEEbj9-mgOrdGgHa7-78">
          <mxGeometry width="50" height="50" relative="1" as="geometry">
            <mxPoint x="105" y="125" as="sourcePoint" />
            <mxPoint x="150.42000000000007" y="48.87000000000012" as="targetPoint" />
          </mxGeometry>
        </mxCell>
        <mxCell id="cO-cEEbj9-mgOrdGgHa7-134" value="" style="endArrow=none;html=1;rounded=0;entryX=0;entryY=0.5;entryDx=0;entryDy=0;exitX=1;exitY=0.5;exitDx=0;exitDy=0;" edge="1" parent="cO-cEEbj9-mgOrdGgHa7-159" source="cO-cEEbj9-mgOrdGgHa7-16" target="cO-cEEbj9-mgOrdGgHa7-79">
          <mxGeometry width="50" height="50" relative="1" as="geometry">
            <mxPoint x="105" y="85" as="sourcePoint" />
            <mxPoint x="150.00000000000568" y="45" as="targetPoint" />
          </mxGeometry>
        </mxCell>
        <mxCell id="cO-cEEbj9-mgOrdGgHa7-135" value="" style="endArrow=none;html=1;rounded=0;entryX=0;entryY=0.5;entryDx=0;entryDy=0;exitX=1;exitY=0.5;exitDx=0;exitDy=0;" edge="1" parent="cO-cEEbj9-mgOrdGgHa7-159" source="cO-cEEbj9-mgOrdGgHa7-16" target="cO-cEEbj9-mgOrdGgHa7-78">
          <mxGeometry width="50" height="50" relative="1" as="geometry">
            <mxPoint x="115" y="95" as="sourcePoint" />
            <mxPoint x="160.00000000000568" y="55" as="targetPoint" />
          </mxGeometry>
        </mxCell>
        <mxCell id="cO-cEEbj9-mgOrdGgHa7-136" value="" style="endArrow=none;html=1;rounded=0;entryX=0;entryY=0.5;entryDx=0;entryDy=0;exitX=1;exitY=0.5;exitDx=0;exitDy=0;" edge="1" parent="cO-cEEbj9-mgOrdGgHa7-159" source="cO-cEEbj9-mgOrdGgHa7-18" target="cO-cEEbj9-mgOrdGgHa7-79">
          <mxGeometry width="50" height="50" relative="1" as="geometry">
            <mxPoint x="105" y="45" as="sourcePoint" />
            <mxPoint x="150.00000000000568" y="45" as="targetPoint" />
          </mxGeometry>
        </mxCell>
        <mxCell id="cO-cEEbj9-mgOrdGgHa7-137" value="" style="endArrow=none;html=1;rounded=0;entryX=0;entryY=0.5;entryDx=0;entryDy=0;exitX=1;exitY=0.5;exitDx=0;exitDy=0;" edge="1" parent="cO-cEEbj9-mgOrdGgHa7-159" source="cO-cEEbj9-mgOrdGgHa7-15" target="cO-cEEbj9-mgOrdGgHa7-77">
          <mxGeometry width="50" height="50" relative="1" as="geometry">
            <mxPoint x="105" y="85" as="sourcePoint" />
            <mxPoint x="150.00000000000568" y="85" as="targetPoint" />
          </mxGeometry>
        </mxCell>
        <mxCell id="cO-cEEbj9-mgOrdGgHa7-138" value="" style="endArrow=none;html=1;rounded=0;entryX=0;entryY=0.5;entryDx=0;entryDy=0;exitX=1;exitY=0.5;exitDx=0;exitDy=0;" edge="1" parent="cO-cEEbj9-mgOrdGgHa7-159" source="cO-cEEbj9-mgOrdGgHa7-15" target="cO-cEEbj9-mgOrdGgHa7-79">
          <mxGeometry width="50" height="50" relative="1" as="geometry">
            <mxPoint x="105" y="125" as="sourcePoint" />
            <mxPoint x="150.00000000000568" y="125" as="targetPoint" />
          </mxGeometry>
        </mxCell>
        <mxCell id="cO-cEEbj9-mgOrdGgHa7-139" value="" style="endArrow=none;html=1;rounded=0;entryX=0;entryY=0.5;entryDx=0;entryDy=0;exitX=1;exitY=0.5;exitDx=0;exitDy=0;" edge="1" parent="cO-cEEbj9-mgOrdGgHa7-159" source="cO-cEEbj9-mgOrdGgHa7-15" target="cO-cEEbj9-mgOrdGgHa7-80">
          <mxGeometry width="50" height="50" relative="1" as="geometry">
            <mxPoint x="105" y="125" as="sourcePoint" />
            <mxPoint x="150.00000000000568" y="85" as="targetPoint" />
          </mxGeometry>
        </mxCell>
        <mxCell id="cO-cEEbj9-mgOrdGgHa7-140" value="" style="endArrow=none;html=1;rounded=0;entryX=0;entryY=0.5;entryDx=0;entryDy=0;exitX=1;exitY=0.5;exitDx=0;exitDy=0;" edge="1" parent="cO-cEEbj9-mgOrdGgHa7-159" source="cO-cEEbj9-mgOrdGgHa7-26" target="cO-cEEbj9-mgOrdGgHa7-78">
          <mxGeometry width="50" height="50" relative="1" as="geometry">
            <mxPoint x="105" y="125" as="sourcePoint" />
            <mxPoint x="150.00000000000568" y="205" as="targetPoint" />
          </mxGeometry>
        </mxCell>
        <mxCell id="cO-cEEbj9-mgOrdGgHa7-141" value="" style="endArrow=none;html=1;rounded=0;entryX=0;entryY=0.5;entryDx=0;entryDy=0;exitX=1;exitY=0.5;exitDx=0;exitDy=0;" edge="1" parent="cO-cEEbj9-mgOrdGgHa7-159" source="cO-cEEbj9-mgOrdGgHa7-18" target="cO-cEEbj9-mgOrdGgHa7-77">
          <mxGeometry width="50" height="50" relative="1" as="geometry">
            <mxPoint x="105" y="45" as="sourcePoint" />
            <mxPoint x="150.00000000000568" y="85" as="targetPoint" />
          </mxGeometry>
        </mxCell>
        <mxCell id="cO-cEEbj9-mgOrdGgHa7-142" value="" style="endArrow=none;html=1;rounded=0;entryX=0;entryY=0.5;entryDx=0;entryDy=0;exitX=1;exitY=0.5;exitDx=0;exitDy=0;" edge="1" parent="cO-cEEbj9-mgOrdGgHa7-159" source="cO-cEEbj9-mgOrdGgHa7-18" target="cO-cEEbj9-mgOrdGgHa7-80">
          <mxGeometry width="50" height="50" relative="1" as="geometry">
            <mxPoint x="105" y="85" as="sourcePoint" />
            <mxPoint x="150.00000000000568" y="125" as="targetPoint" />
          </mxGeometry>
        </mxCell>
        <mxCell id="cO-cEEbj9-mgOrdGgHa7-143" value="" style="endArrow=none;html=1;rounded=0;entryX=0;entryY=0.5;entryDx=0;entryDy=0;exitX=1;exitY=0.5;exitDx=0;exitDy=0;" edge="1" parent="cO-cEEbj9-mgOrdGgHa7-159" source="cO-cEEbj9-mgOrdGgHa7-16" target="cO-cEEbj9-mgOrdGgHa7-80">
          <mxGeometry width="50" height="50" relative="1" as="geometry">
            <mxPoint x="105" y="85" as="sourcePoint" />
            <mxPoint x="150.00000000000568" y="205" as="targetPoint" />
          </mxGeometry>
        </mxCell>
        <mxCell id="cO-cEEbj9-mgOrdGgHa7-144" value="" style="endArrow=none;html=1;rounded=0;entryX=0;entryY=0.5;entryDx=0;entryDy=0;exitX=1;exitY=0.5;exitDx=0;exitDy=0;" edge="1" parent="cO-cEEbj9-mgOrdGgHa7-159" source="cO-cEEbj9-mgOrdGgHa7-16" target="cO-cEEbj9-mgOrdGgHa7-77">
          <mxGeometry width="50" height="50" relative="1" as="geometry">
            <mxPoint x="105" y="45" as="sourcePoint" />
            <mxPoint x="150.00000000000568" y="205" as="targetPoint" />
          </mxGeometry>
        </mxCell>
        <mxCell id="cO-cEEbj9-mgOrdGgHa7-161" value="CNN" style="text;html=1;align=center;verticalAlign=middle;resizable=0;points=[];autosize=1;strokeColor=none;fillColor=none;" vertex="1" parent="cO-cEEbj9-mgOrdGgHa7-160">
          <mxGeometry x="155" y="200" width="50" height="30" as="geometry" />
        </mxCell>
        <mxCell id="cO-cEEbj9-mgOrdGgHa7-170" style="edgeStyle=orthogonalEdgeStyle;rounded=0;orthogonalLoop=1;jettySize=auto;html=1;exitX=1;exitY=0.5;exitDx=0;exitDy=0;entryX=0;entryY=0.5;entryDx=0;entryDy=0;" edge="1" parent="cO-cEEbj9-mgOrdGgHa7-172" source="cO-cEEbj9-mgOrdGgHa7-5" target="cO-cEEbj9-mgOrdGgHa7-167">
          <mxGeometry relative="1" as="geometry" />
        </mxCell>
        <mxCell id="cO-cEEbj9-mgOrdGgHa7-171" style="edgeStyle=orthogonalEdgeStyle;rounded=0;orthogonalLoop=1;jettySize=auto;html=1;exitX=1;exitY=0.5;exitDx=0;exitDy=0;entryX=0;entryY=1;entryDx=0;entryDy=-15;entryPerimeter=0;" edge="1" parent="cO-cEEbj9-mgOrdGgHa7-172" source="cO-cEEbj9-mgOrdGgHa7-167" target="cO-cEEbj9-mgOrdGgHa7-164">
          <mxGeometry relative="1" as="geometry" />
        </mxCell>
        <mxCell id="cO-cEEbj9-mgOrdGgHa7-179" value="" style="group" vertex="1" connectable="0" parent="1">
          <mxGeometry x="30" y="383" width="700" height="335" as="geometry" />
        </mxCell>
        <mxCell id="cO-cEEbj9-mgOrdGgHa7-6" value="" style="ellipse;shape=cloud;whiteSpace=wrap;html=1;" vertex="1" parent="cO-cEEbj9-mgOrdGgHa7-179">
          <mxGeometry width="700" height="335" as="geometry" />
        </mxCell>
        <mxCell id="cO-cEEbj9-mgOrdGgHa7-1" value="Trained model&lt;br&gt;in cloud" style="shape=cylinder3;whiteSpace=wrap;html=1;boundedLbl=1;backgroundOutline=1;size=15;" vertex="1" parent="cO-cEEbj9-mgOrdGgHa7-179">
          <mxGeometry x="400" y="97.5" width="185" height="140" as="geometry" />
        </mxCell>
        <mxCell id="cO-cEEbj9-mgOrdGgHa7-178" value="" style="group" vertex="1" connectable="0" parent="cO-cEEbj9-mgOrdGgHa7-179">
          <mxGeometry x="180" y="92.5" width="140" height="150" as="geometry" />
        </mxCell>
        <mxCell id="cO-cEEbj9-mgOrdGgHa7-173" value="" style="rounded=1;whiteSpace=wrap;html=1;fillColor=#FFFCF2;" vertex="1" parent="cO-cEEbj9-mgOrdGgHa7-178">
          <mxGeometry width="140" height="150" as="geometry" />
        </mxCell>
        <mxCell id="cO-cEEbj9-mgOrdGgHa7-174" value="" style="shape=note;whiteSpace=wrap;html=1;backgroundOutline=1;darkOpacity=0.05;fillColor=#FFFCF2;" vertex="1" parent="cO-cEEbj9-mgOrdGgHa7-178">
          <mxGeometry x="20" y="15" width="80" height="100" as="geometry" />
        </mxCell>
        <mxCell id="cO-cEEbj9-mgOrdGgHa7-175" value="" style="shape=note;whiteSpace=wrap;html=1;backgroundOutline=1;darkOpacity=0.05;fillColor=#FFFCF2;" vertex="1" parent="cO-cEEbj9-mgOrdGgHa7-178">
          <mxGeometry x="30" y="25" width="80" height="100" as="geometry" />
        </mxCell>
        <mxCell id="cO-cEEbj9-mgOrdGgHa7-176" value="User collected&lt;br&gt;images" style="shape=note;whiteSpace=wrap;html=1;backgroundOutline=1;darkOpacity=0.05;fillColor=#FFFCF2;" vertex="1" parent="cO-cEEbj9-mgOrdGgHa7-178">
          <mxGeometry x="40" y="35" width="80" height="100" as="geometry" />
        </mxCell>
        <mxCell id="cO-cEEbj9-mgOrdGgHa7-181" value="" style="endArrow=classic;html=1;rounded=0;exitX=0.5;exitY=0;exitDx=0;exitDy=0;entryX=0.593;entryY=1.024;entryDx=0;entryDy=0;entryPerimeter=0;" edge="1" parent="1" source="cO-cEEbj9-mgOrdGgHa7-173" target="cO-cEEbj9-mgOrdGgHa7-5">
          <mxGeometry width="50" height="50" relative="1" as="geometry">
            <mxPoint x="400" y="570" as="sourcePoint" />
            <mxPoint x="240" y="200" as="targetPoint" />
          </mxGeometry>
        </mxCell>
      </root>
    </mxGraphModel>
  </diagram>
</mxfile>
